<?xml version="1.0" encoding="UTF-8"?>
<svg width="20px" height="20px" viewBox="0 0 20 20" version="1.1" xmlns="http://www.w3.org/2000/svg" xmlns:xlink="http://www.w3.org/1999/xlink">
    <!-- Generator: Sketch 52.6 (67491) - http://www.bohemiancoding.com/sketch -->
    <title>Share Icon / Components / Facebook</title>
    <desc>Created with Sketch.</desc>
    <g id="Share-Icon-/-Components-/-Facebook" stroke="none" stroke-width="1" fill="none" fill-rule="evenodd">
        <g id="Group" fill="#000000">
            <path d="M18.8888889,0 L1.11111111,0 C0.497461389,-3.75752084e-17 7.51504168e-17,0.497461389 0,1.11111111 L0,18.8888889 C7.51504168e-17,19.5025386 0.497461389,20 1.11111111,20 L10.6833333,20 L10.6833333,12.2666667 L8.08611111,12.2666667 L8.08611111,9.23888889 L10.6833333,9.23888889 L10.6833333,7.01666667 C10.6833333,4.43333333 12.2611111,3.025 14.5722222,3.025 C15.3497363,3.02272776 16.1268021,3.06260106 16.9,3.14444444 L16.9,5.83333333 L15.3055556,5.83333333 C14.0527778,5.83333333 13.8083333,6.43055556 13.8083333,7.30555556 L13.8083333,9.23333333 L16.8055556,9.23333333 L16.4166667,12.2611111 L13.8083333,12.2611111 L13.8083333,20 L18.8888889,20 C19.5025386,20 20,19.5025386 20,18.8888889 L20,1.11111111 C20,0.497461389 19.5025386,3.75752084e-17 18.8888889,0 Z" id="Path"></path>
        </g>
    </g>
</svg>