<?xml version="1.0" encoding="UTF-8"?>
<svg width="20px" height="20px" viewBox="0 0 20 20" version="1.1" xmlns="http://www.w3.org/2000/svg" xmlns:xlink="http://www.w3.org/1999/xlink">
    <!-- Generator: Sketch 52.6 (67491) - http://www.bohemiancoding.com/sketch -->
    <title>Share Icon / Components / Hatena</title>
    <desc>Created with Sketch.</desc>
    <g id="Share-Icon-/-Components-/-Hatena" stroke="none" stroke-width="1" fill="none" fill-rule="evenodd">
        <path d="M4,0 L16,0 C18.209139,-4.05812251e-16 20,1.790861 20,4 L20,16 C20,18.209139 18.209139,20 16,20 L4,20 C1.790861,20 2.705415e-16,18.209139 0,16 L0,4 C-2.705415e-16,1.790861 1.790861,4.05812251e-16 4,0 Z M11.128,10.324 C10.7653333,9.91866667 10.2613333,9.692 9.616,9.644 C10.192,9.488 10.608,9.26 10.872,8.952 C11.136,8.644 11.264,8.24 11.264,7.724 C11.2706053,7.34598485 11.1796815,6.97264641 11,6.64 C10.8182398,6.32535069 10.5522595,6.06768232 10.232,5.896 C9.94,5.736 9.592,5.62 9.184,5.552 C8.776,5.484 8.06,5.456 7.036,5.456 L4.544,5.456 L4.544,14.544 L7.112,14.544 C8.144,14.544 8.888,14.5093333 9.344,14.44 C9.8,14.368 10.18,14.248 10.488,14.084 C10.8585696,13.8920492 11.1635433,13.5940384 11.364,13.228 C11.568,12.86 11.672,12.432 11.672,11.944 C11.672,11.268 11.492,10.728 11.128,10.324 Z M6.848,7.468 L7.38,7.468 C7.996,7.468 8.40933333,7.53733333 8.62,7.676 C8.832,7.816 8.936,8.056 8.936,8.396 C8.936,8.736 8.82,8.956 8.596,9.092 C8.372,9.228 7.952,9.292 7.34,9.292 L6.848,9.292 L6.848,7.468 Z M8.96,12.68 C8.716,12.828 8.3,12.9 7.716,12.9 L6.848,12.9 L6.848,10.92 L7.752,10.92 C8.352,10.92 8.768,10.996 8.988,11.148 C9.208,11.3 9.324,11.564 9.324,11.948 C9.324,12.332 9.204,12.536 8.956,12.684 L8.96,12.68 Z M14.304,12.244 C13.667768,12.244 13.152,12.759768 13.152,13.396 C13.152,14.032232 13.667768,14.548 14.304,14.548 C14.940232,14.548 15.456,14.032232 15.456,13.396 C15.456,12.759768 14.940232,12.244 14.304,12.244 Z M13.304,5.456 L13.304,11.5168 L15.304,11.5168 L15.304,5.456 L13.304,5.456 Z" id="Combined-Shape" fill="#000000"></path>
    </g>
</svg>