<?xml version="1.0" encoding="UTF-8"?>
<svg width="20px" height="20px" viewBox="0 0 20 20" version="1.1" xmlns="http://www.w3.org/2000/svg" xmlns:xlink="http://www.w3.org/1999/xlink">
    <!-- Generator: Sketch 52.6 (67491) - http://www.bohemiancoding.com/sketch -->
    <title>Share Icon / Components / Pocket</title>
    <desc>Created with Sketch.</desc>
    <g id="Share-Icon-/-Components-/-Pocket" stroke="none" stroke-width="1" fill="none" fill-rule="evenodd">
        <path d="M15.7192681,8.43868573 L10.9472739,12.9297983 C10.7017363,13.2104929 10.315758,13.3159637 10.0350634,13.3159637 C9.68424202,13.3159637 9.3334206,13.2104929 9.05272607,12.9297983 L4.35085882,8.43868573 C3.85959663,7.9124536 3.78946975,7.03521305 4.35085882,6.47382397 C4.87709095,5.98256178 5.7543315,5.9124349 6.28075064,6.47382397 L10.0350634,10.087696 L13.8596901,6.47382397 C14.3509523,5.9124349 15.2280059,5.98256178 15.7192681,6.47382397 C16.2105303,7.03521305 16.2105303,7.9124536 15.7192681,8.43868573 M18.1404221,1 L1.92989182,1 C0.877240554,1 0,1.80711367 0,2.85976493 L0,8.85963403 C0,14.2983011 4.49111259,18.8247576 10.0350634,18.8247576 C15.5438574,18.8247576 20,14.2983011 20,8.85963403 L20,2.85976493 C20,1.80711367 19.1579164,1 18.1404221,1" id="Shape" fill="#000000" fill-rule="nonzero"></path>
    </g>
</svg>