<?xml version="1.0" encoding="UTF-8"?>
<svg width="20px" height="20px" viewBox="0 0 20 20" version="1.1" xmlns="http://www.w3.org/2000/svg" xmlns:xlink="http://www.w3.org/1999/xlink">
    <!-- Generator: Sketch 52.6 (67491) - http://www.bohemiancoding.com/sketch -->
    <title>Share Icon / Components / Twitter</title>
    <desc>Created with Sketch.</desc>
    <g id="Share-Icon-/-Components-/-Twitter" stroke="none" stroke-width="1" fill="none" fill-rule="evenodd">
        <path d="M20,3.89398041 C19.2642,4.21528769 18.4733,4.43244574 17.6434,4.52999951 C18.4904,4.03012256 19.1411,3.23856869 19.4475,2.29531919 C18.6546,2.75828124 17.7765,3.09435448 16.8418,3.27548359 C16.0934,2.49042674 15.027,2 13.8468,2 C11.5808,2 9.7435,3.80843628 9.7435,6.03908057 C9.7435,6.35566275 9.7798,6.66397598 9.8498,6.95959049 C6.4396,6.79116011 3.4161,5.18304868 1.3924,2.73928237 C1.0392,3.33582714 0.8368,4.0297288 0.8368,4.76999557 C0.8368,6.17138357 1.5612,7.40768814 2.6622,8.13200768 C1.9896,8.11104002 1.3569,7.92932027 0.8037,7.62681498 C0.8033,7.64364818 0.8033,7.66048137 0.8033,7.67760988 C0.8033,9.63459172 2.2177,11.2671162 4.0948,11.638234 C3.7505,11.7305705 3.388,11.7799872 3.0138,11.7799872 C2.7494,11.7799872 2.4923,11.7545898 2.2418,11.7074371 C2.7639,13.3121032 4.2792,14.4799921 6.0748,14.5124772 C4.6705,15.5959049 2.9013,16.2416695 0.9788,16.2416695 C0.6476,16.2416695 0.321,16.2224738 0,16.1851651 C1.8159,17.3312005 3.9727,18 6.2899,18 C13.8372,18 17.9645,11.8451543 17.9645,6.50745681 C17.9645,6.33233253 17.9604,6.15819265 17.9525,5.98493872 C18.7543,5.41536644 19.4499,4.70404095 20,3.89398041" id="Fill-1" fill="#000000"></path>
    </g>
</svg>